<?xml version="1.0" encoding="UTF-8"?>
<svg width="164px" height="54px" viewBox="0 0 164 54" version="1.1" xmlns="http://www.w3.org/2000/svg" xmlns:xlink="http://www.w3.org/1999/xlink">
    <title>BTYBdeliveroo-secondary</title>
    <g id="Page-1" stroke="none" stroke-width="1" fill="none" fill-rule="evenodd">
        <g id="BTYBdeliveroo-secondary" fill="#000000">
            <path d="M59.8,42.7 L63.5,42.7 L63,39.8 L63,22.6 L59.4,22.6 L59.4,30.5 C58.3,29.2 56.8,28.5 55.1,28.5 C51.5,28.5 48.8,31.5 48.8,35.8 C48.8,40.1 51.6,43.1 55.1,43.1 C56.8,43.1 58.4,42.4 59.5,41.1 L59.8,42.7 L59.8,42.7 Z M130.5,32.3 C131.2,32.3 131.9,32.5 132.5,32.9 L134.2,29.1 C133.4,28.6 132.5,28.4 131.6,28.4 C130,28.4 128.6,29.2 127.8,30.5 L127.4,28.7 L123.7,28.7 L124.3,31.4 L124.3,42.6 L127.9,42.6 L127.9,33.7 C128.4,32.9 129.4,32.3 130.5,32.3 L130.5,32.3 Z M141,39.2 C139.1,39.2 137.5,37.5 137.6,35.6 C137.6,33.7 139.3,32.1 141.2,32.2 C143.1,32.2 144.6,33.8 144.6,35.7 C144.7,37.6 143.2,39.2 141.3,39.2 C141.2,39.2 141.1,39.2 141,39.2 Z M52.2,35.8 C52.2,33.8 53.7,32.2 55.7,32.1 C57.7,32 59.3,33.6 59.4,35.6 C59.4,37.6 57.9,39.2 55.9,39.3 C55.9,39.3 55.8,39.3 55.8,39.3 C53.9,39.4 52.3,38 52.2,36.1 C52.2,36 52.2,35.9 52.2,35.8 Z M156.8,39.2 C154.9,39.4 153.1,38 152.9,36.1 C152.7,34.2 154.1,32.4 156,32.2 C156.2,32.2 156.5,32.2 156.7,32.2 C158.6,32 160.4,33.4 160.6,35.3 C160.8,37.2 159.4,39 157.5,39.2 C157.3,39.3 157,39.3 156.8,39.2 Z M72.2,32 C73.8,31.8 75.3,32.9 75.6,34.5 L68.7,34.5 C69.2,32.9 70.6,31.8 72.2,32 Z M115,32 C116.6,31.8 118.1,32.9 118.4,34.5 L111.5,34.5 C111.9,32.9 113.4,31.8 115,32 Z M97.6,42.7 L103.4,42.7 L107.1,28.7 L103.2,28.7 L100.4,40 L97.7,28.7 L93.9,28.7 L97.6,42.7 L97.6,42.7 Z M88.3,42.7 L91.9,42.7 L91.9,28.7 L88.3,28.7 L88.3,42.7 L88.3,42.7 Z M72.8,43 C74.8,43 76.7,42.5 78.4,41.4 L77,38.3 C75.7,39 74.3,39.4 72.8,39.4 C70.9,39.4 69.6,38.7 69,37.3 L79,37.3 C79.1,36.8 79.2,36.2 79.2,35.6 C79.2,31.3 76.2,28.4 72.2,28.4 C68.2,28.4 65.2,31.3 65.2,35.7 C65.2,40.1 68.3,43 72.8,43 Z M163.8,35.7 C163.9,31.8 160.9,28.5 157,28.4 C153.1,28.3 149.8,31.3 149.7,35.2 C149.7,35.4 149.7,35.6 149.7,35.7 C149.6,39.6 152.6,42.9 156.5,43 C160.4,43.1 163.7,40.1 163.8,36.2 C163.8,36.1 163.8,35.9 163.8,35.7 Z M115.5,43 C117.5,43 119.4,42.5 121.1,41.4 L119.7,38.3 C118.4,39 117,39.4 115.5,39.4 C113.6,39.4 112.3,38.7 111.7,37.3 L121.7,37.3 C121.8,36.8 121.9,36.2 121.9,35.6 C121.9,31.3 118.9,28.4 114.9,28.4 C110.9,28.4 107.9,31.3 107.9,35.7 C107.9,40.1 110.9,43 115.5,43 Z M141,43 C144.8,43.1 148,40 148,36.2 C148,36 148,35.9 148,35.7 C148.1,31.8 145.1,28.5 141.2,28.4 C137.3,28.3 134,31.3 133.9,35.2 C133.9,35.4 133.9,35.6 133.9,35.7 C133.7,39.5 136.6,42.8 140.4,43 C140.6,43 140.8,43 141,43 Z M81.6,42.7 L85.2,42.7 L85.2,22.6 L81.6,22.6 L81.6,42.7 L81.6,42.7 Z M90.2,26.8 C91.5,26.8 92.5,25.8 92.5,24.5 C92.5,23.2 91.5,22.2 90.2,22.2 C88.9,22.2 87.9,23.2 87.9,24.5 C87.9,24.5 87.9,24.5 87.9,24.5 C87.9,25.7 88.8,26.7 90,26.8 C90.1,26.8 90.1,26.8 90.2,26.8 Z" id="Shape"></path>
            <path d="M28.8,9.9 L26.8,29.3 L23.3,13 L12.4,15.3 L15.9,31.6 L0,34.9 L2.8,47.9 L30.5,53.7 L36.8,39.5 L39.8,10.9 L28.8,9.9 Z M20,38 C19.4,38.5 18.6,38.5 17.9,38.2 C17.1,37.9 16.7,37 17,35.8 C17.2,34.9 18.3,34.8 18.8,34.8 C19,34.8 19.2,34.8 19.4,34.9 C19.8,35.1 20.4,35.4 20.5,36 C20.8,36.7 20.6,37.5 20,38 Z M28,38.9 C27.6,39.6 26.5,39.7 25.4,39.2 C24.7,38.8 24.7,38 24.8,37.4 C24.8,37.1 25,36.8 25.2,36.6 C25.5,36.2 25.9,35.9 26.4,35.8 C27.2,35.8 27.9,36.1 28.3,36.8 C28.5,37.5 28.4,38.3 28,38.9 L28,38.9 Z" id="Shape"></path>
            <path d="M50.5,9.3 L50.5,10.2 L48.9,10.2 L48.9,0 L50.5,0 L50.5,4.3 C51,3.7 51.7,3.3 52.5,3.3 C54.3,3.3 55.8,4.8 55.8,6.6 C55.8,6.7 55.8,6.8 55.8,6.9 C55.9,8.7 54.6,10.3 52.8,10.4 C52.7,10.4 52.6,10.4 52.6,10.4 C51.7,10.3 51,10 50.5,9.3 Z M50.5,6.8 C50.4,7.8 51.1,8.7 52.1,8.9 C53.1,9.1 54,8.3 54.2,7.3 C54.2,7.1 54.2,7 54.2,6.8 C54.3,5.8 53.6,4.9 52.6,4.7 C51.6,4.6 50.7,5.3 50.5,6.3 C50.5,6.5 50.5,6.6 50.5,6.8 Z" id="Shape" fill-rule="nonzero"></path>
            <path d="M58.8,10.2 L57.2,10.2 L57.2,3.4 L58.8,3.4 L58.8,4.5 C59.3,3.7 60.1,3.2 61.1,3.3 C61.2,3.3 61.3,3.3 61.4,3.3 L61.4,5.1 C61.2,5 61,5 60.7,5 C59.8,4.9 58.9,5.5 58.8,6.4 C58.8,6.5 58.8,6.6 58.8,6.8 L58.8,10.2 L58.8,10.2 Z" id="Path" fill-rule="nonzero"></path>
            <path d="M62.2,6.8 C62.2,4.9 63.7,3.3 65.6,3.3 C67.5,3.3 69.1,4.8 69.1,6.8 C69.1,8.8 67.6,10.3 65.6,10.3 C63.7,10.3 62.2,8.7 62.2,6.8 Z M67.4,6.8 C67.5,5.8 66.8,4.9 65.8,4.7 C64.8,4.6 63.9,5.3 63.7,6.3 C63.7,6.5 63.7,6.6 63.7,6.8 C63.6,7.8 64.4,8.7 65.4,8.8 C66.4,8.9 67.3,8.1 67.4,7.1 C67.5,7 67.5,6.9 67.4,6.8 Z" id="Shape" fill-rule="nonzero"></path>
            <path d="M74.8,9.2 C74.4,9.9 73.7,10.3 72.9,10.3 C71.5,10.3 70.4,9.3 70.4,7.5 L70.4,3.5 L72,3.5 L72,7.2 C72,8.3 72.5,9 73.4,9 C74.3,9 74.8,8.4 74.8,7.2 L74.8,3.4 L76.4,3.4 L76.4,10.2 L74.8,10.2 L74.8,9.2 L74.8,9.2 Z" id="Path" fill-rule="nonzero"></path>
            <path d="M78,10.7 L79.6,10.7 C79.7,11.6 80.5,12.2 81.4,12.2 C82.5,12.2 83.2,11.4 83.2,10.2 L83.2,9.3 C82.7,9.9 82,10.3 81.2,10.3 C79.4,10.3 77.9,8.8 78,7 C78,6.9 78,6.9 78,6.8 C77.9,5 79.2,3.4 81,3.3 C81.1,3.3 81.1,3.3 81.2,3.3 C82,3.3 82.7,3.7 83.2,4.3 L83.2,3.4 L84.8,3.4 L84.8,10.2 C84.9,12.1 83.4,13.6 81.6,13.7 C81.5,13.7 81.5,13.7 81.4,13.7 C79.7,13.7 78.2,12.4 78,10.7 Z M83.1,6.8 C83.2,5.8 82.5,4.9 81.5,4.7 C80.5,4.6 79.6,5.3 79.4,6.3 C79.4,6.5 79.4,6.6 79.4,6.8 C79.3,7.8 80,8.7 81,8.9 C82,9.1 82.9,8.3 83.1,7.3 C83.2,7.1 83.2,6.9 83.1,6.8 Z" id="Shape" fill-rule="nonzero"></path>
            <path d="M88.3,10.2 L86.7,10.2 L86.7,0 L88.3,0 L88.3,4.4 C88.7,3.7 89.5,3.3 90.3,3.3 C91.7,3.3 92.8,4.2 92.8,6.1 L92.8,10.1 L91.1,10.1 L91.1,6.4 C91.1,5.3 90.6,4.6 89.7,4.6 C88.8,4.6 88.3,5.2 88.3,6.4 L88.3,10.2 Z" id="Path" fill-rule="nonzero"></path>
            <path d="M97.6,8.8 C97.9,8.8 98.1,8.8 98.3,8.7 L98.3,10.1 C98,10.2 97.6,10.3 97.2,10.3 C95.9,10.3 94.9,9.8 94.9,8 L94.9,4.8 L93.8,4.8 L93.8,3.4 L94.9,3.4 L94.9,1.4 L96.5,1.4 L96.5,3.4 L98.3,3.4 L98.3,4.8 L96.6,4.8 L96.6,7.8 C96.6,8.5 96.9,8.8 97.6,8.8 Z" id="Path" fill-rule="nonzero"></path>
            <path d="M106,8.8 C106.3,8.8 106.5,8.8 106.7,8.7 L106.7,10.1 C106.4,10.2 106,10.3 105.6,10.3 C104.3,10.3 103.3,9.8 103.3,8 L103.3,4.8 L102.2,4.8 L102.2,3.4 L103.3,3.4 L103.3,1.4 L104.9,1.4 L104.9,3.4 L106.7,3.4 L106.7,4.8 L105,4.8 L105,7.8 C105,8.5 105.3,8.8 106,8.8 Z" id="Path" fill-rule="nonzero"></path>
            <path d="M107.7,6.8 C107.6,4.9 109.1,3.3 111,3.2 C112.9,3.1 114.5,4.6 114.6,6.5 C114.6,6.6 114.6,6.7 114.6,6.9 C114.7,8.8 113.2,10.4 111.3,10.5 C109.4,10.6 107.8,9.1 107.7,7.2 C107.6,7 107.6,6.9 107.7,6.8 Z M112.9,6.8 C113,5.8 112.3,4.9 111.3,4.7 C110.3,4.6 109.4,5.3 109.2,6.3 C109.2,6.5 109.2,6.6 109.2,6.8 C109.1,7.8 109.9,8.7 110.9,8.8 C111.9,8.9 112.8,8.1 112.9,7.1 C112.9,7 112.9,6.9 112.9,6.8 Z" id="Shape" fill-rule="nonzero"></path>
            <path d="M118.1,13.5 L118.1,12.1 C118.4,12.2 118.7,12.2 119,12.2 C119.8,12.2 120.2,11.8 120.6,10.8 L118,3.4 L119.6,3.4 L121.3,8.6 L123,3.4 L124.6,3.4 L122,10.9 C121.4,12.6 120.7,13.7 119,13.7 C118.8,13.7 118.4,13.6 118.1,13.5 Z" id="Path" fill-rule="nonzero"></path>
            <path d="M125.2,6.8 C125.1,4.9 126.6,3.3 128.5,3.2 C130.4,3.1 132,4.6 132.1,6.5 C132.1,6.6 132.1,6.7 132.1,6.9 C132.2,8.8 130.7,10.4 128.8,10.5 C126.9,10.6 125.3,9.1 125.2,7.2 C125.2,7 125.2,6.9 125.2,6.8 Z M130.5,6.8 C130.6,5.8 129.9,4.9 128.9,4.7 C127.9,4.6 127,5.3 126.8,6.3 C126.8,6.5 126.8,6.6 126.8,6.8 C126.7,7.8 127.4,8.7 128.4,8.9 C129.4,9 130.3,8.3 130.5,7.3 C130.5,7.1 130.5,6.9 130.5,6.8 Z" id="Shape" fill-rule="nonzero"></path>
            <path d="M137.9,9.2 C137.5,9.9 136.8,10.3 136,10.3 C134.6,10.3 133.5,9.4 133.5,7.5 L133.5,3.5 L135.1,3.5 L135.1,7.2 C135.1,8.3 135.6,9 136.5,9 C137.4,9 137.9,8.4 137.9,7.2 L137.9,3.4 L139.5,3.4 L139.5,10.2 L137.9,10.2 L137.9,9.2 Z" id="Path" fill-rule="nonzero"></path>
            <path d="M146.1,9.3 L146.1,10.2 L144.5,10.2 L144.5,0 L146.1,0 L146.1,4.2 C146.6,3.6 147.3,3.2 148.1,3.2 C149.9,3.2 151.4,4.7 151.4,6.5 C151.4,6.6 151.4,6.6 151.4,6.7 C151.5,8.5 150.2,10.1 148.4,10.2 C148.3,10.2 148.3,10.2 148.2,10.2 C147.3,10.3 146.6,9.9 146.1,9.3 Z M146.1,6.8 C146,7.8 146.7,8.7 147.7,8.9 C148.7,9.1 149.6,8.3 149.8,7.3 C149.8,7.1 149.8,7 149.8,6.8 C149.9,5.8 149.2,4.9 148.2,4.7 C147.2,4.5 146.3,5.3 146.1,6.3 C146.1,6.4 146.1,6.6 146.1,6.8 Z" id="Shape" fill-rule="nonzero"></path>
            <path d="M152,13.5 L152,12.1 C152.3,12.2 152.6,12.2 152.9,12.2 C153.7,12.2 154.1,11.8 154.5,10.8 L152,3.4 L153.6,3.4 L155.3,8.6 L157,3.4 L158.6,3.4 L156,10.9 C155.4,12.6 154.7,13.7 153,13.7 C152.7,13.6 152.3,13.6 152,13.5 Z" id="Path" fill-rule="nonzero"></path>
        </g>
    </g>
</svg>