<svg xmlns="http://www.w3.org/2000/svg" data-name="Layer 1" viewBox="0 0 80 80">
  <circle cx="40" cy="40" r="40" fill="#ebebed"/>
  <path fill="#fff" fill-rule="evenodd" d="M40 8a32 32 0 1032 32A32 32 0 0040 8z"/>
  <path fill="#e6007d" fill-rule="evenodd" d="M46.699 71.298l-.062.013q-.176.037-.353.072l-.23.045-.232.044-.28.05-.175.03-.335.055-.198.03-.24.036-.302.042-.192.025-.286.035-.246.028q-.165.019-.332.035l-.117.012q-.452.044-.907.075l-.153.01q-.226.014-.453.025l-.027.002Q40.8 72 40.006 72h-.035l-.5-.004q-.17-.003-.338-.008a28.122 28.122 0 01-.17-.005q-.22-.007-.438-.017l-.06-.002-.194-.01q-.447-.024-.89-.06l-.07-.006q-.197-.016-.393-.035l-.36-.036-.125-.014q-.205-.022-.41-.048l-.106-.013q-.128-.016-.255-.034-.153-.02-.306-.043l-.15-.022-.315-.049-.226-.037-.309-.053a30.76 30.76 0 01-.448-.083q-.157-.03-.313-.062a32.172 32.172 0 01-.401-.084l-.317-.07a32.423 32.423 0 01-.664-.16l-.255-.064-.291-.077a32.094 32.094 0 01-.175-.048l-.29-.08-.186-.054-.287-.086-.229-.07-.225-.07-.223-.073-.275-.09-.172-.06q-.136-.046-.27-.094l-.244-.087-.23-.084-.24-.09-.199-.077q-.176-.068-.353-.14l-.102-.04-.284-.118a30.91 30.91 0 01-.338-.143q-.368-.159-.731-.326l-.183-.085a31.923 31.923 0 01-3.07-1.65l-.192-.118q-.335-.208-.666-.424l-.149-.098q-.507-.336-1-.69-.291-.21-.578-.425l-.154-.116q-.313-.239-.619-.484l-.247-.2-.083-.068q-.31-.256-.615-.52l-.189-.165-.155-.137-.195-.175-.159-.145-.224-.208-.112-.106q-.097-.09-.193-.183l-.235-.228-.101-.1q-.102-.1-.203-.202l-.127-.13q-.107-.108-.214-.22l-.044-.045a32 32 0 1146.254-.07l-.069.071q-.447.466-.912.913-.254.244-.514.483-.594.548-1.216 1.065l-.033.027q-.542.45-1.104.876l-.02.015q-1.054.798-2.175 1.51l-.21.13-.102.065-.27.165-.22.132-.188.11q-.135.08-.27.157l-.168.095-.215.12-.182.1-.304.164-.093.049q-.145.077-.292.152l-.19.096-.224.113-.192.094-.288.139-.058.027-.34.158-.23.104-.236.105-.142.062q-.368.16-.74.31-.58.234-1.172.446l-.4.14q-.59.202-1.191.382l-.247.074-.247.07-.221.062-.235.063-.212.056-.327.083-.09.022-.357.085a30.385 30.385 0 01-.384.086l-.182.04zM40 10.667a29.334 29.334 0 00-22.052 48.677 18.644 18.644 0 0116.748-11.277l.339-.003L44.792 48A19.063 19.063 0 0162.11 59.277 29.333 29.333 0 0040 10.667zM40 24a10.667 10.667 0 11-10.667 10.667A10.667 10.667 0 0140 24z"/>
</svg>
