<svg id="Layer_1" data-name="Layer 1" xmlns="http://www.w3.org/2000/svg" viewBox="0 0 80 80"><defs><style>.cls-1{fill:#ebebed;}.cls-2{fill:#fff;}.cls-2,.cls-3{fill-rule:evenodd;}.cls-3{fill:#ff2350;}</style></defs><title>wallet</title><g id="wallet"><circle id="Oval" class="cls-1" cx="40" cy="40" r="40"/><path id="bck" class="cls-2" d="M40,8A32,32,0,1,0,72,40,32,32,0,0,0,40,8Z"/><path id="Combined-Shape" class="cls-3" d="M40,8A32,32,0,1,1,8,40,32,32,0,0,1,40,8Zm0,2.66667A29.33333,29.33333,0,1,0,69.33333,40,29.33333,29.33333,0,0,0,40,10.66667Z"/><path id="Shape" class="cls-3" d="M49.16667,20a1.66666,1.66666,0,0,1,1.66666,1.66667V25H40a3.33333,3.33333,0,0,0-3.33333,3.33333V46.66667A3.33333,3.33333,0,0,0,40,50H50.83333v8.33333A1.66666,1.66666,0,0,1,49.16667,60H27.5a1.66667,1.66667,0,0,1-1.66667-1.66667V21.66667A1.66667,1.66667,0,0,1,27.5,20ZM38.33333,54.16667A1.66667,1.66667,0,1,0,40,55.83333,1.66666,1.66666,0,0,0,38.33333,54.16667Zm20-27.5A1.66666,1.66666,0,0,1,60,28.33333V46.66667a1.66666,1.66666,0,0,1-1.66667,1.66666H40a1.66666,1.66666,0,0,1-1.66667-1.66666V28.33333A1.66666,1.66666,0,0,1,40,26.66667Zm0,1.66666H40V46.66667H58.33333Zm-3.18382,2.50225.11523-.00124.12374.01136.0265.012.02283.018.274.30132a.07347.07347,0,0,1,.02467.06272.09661.09661,0,0,1-.02768.05531l-.02576.01832H55.668a1.28385,1.28385,0,0,0-.63333.43794l-.075.10745v.00818l-.04059.06041-.02518.05139-.02334.08528a.56221.56221,0,0,0,.04174.34065l.04326.07719c.05343.09681.11235.19634.18085.30406a3.31769,3.31769,0,0,1,.64807,1.30075,3.27442,3.27442,0,0,1,.001,1.12179l-.04618.22123v.01636a6.811,6.811,0,0,1-.944,2.08611,10.91381,10.91381,0,0,1-.88866,1.15407l-.2458.26939-.56038.56447a7.15814,7.15814,0,0,1-1.129.88081l-.19344.116h0l-.29021.17032h-.011a5.41958,5.41958,0,0,1-.73038.36223l-.33215.12528h0l-.28979.09606-.14523.045a6.98485,6.98485,0,0,1-.94538.22361,7.27307,7.27307,0,0,1-1.55613.12449l-.49817-.02326a2.55172,2.55172,0,0,1-.7202-.16395.62289.62289,0,0,1-.10276-1.13849c2.22773-1.26248,3.38383-4.185,3.74455-5.8356l.03562-.17185v-.00954l.063-.15953h0a4.764,4.764,0,0,1,.35349-1.00488A2.53382,2.53382,0,0,1,52.25774,31.617l.21633-.01319.22349-.00005.23755.02284c.08388.0092.1719.02013.23205.03077l.17573.03774.1768.01657h0l.07668.00252a.564.564,0,0,0,.36662-.07909l.07729-.05726.09906-.126a2.37407,2.37407,0,0,1,.47366-.4289A1.0611,1.0611,0,0,1,55.14951,30.83558Z"/></g></svg>