<svg xmlns="http://www.w3.org/2000/svg" data-name="Layer 1" viewBox="0 0 80 80">
  <circle cx="40" cy="40" r="40" fill="#ebebed"/>
  <path fill="#fff" fill-rule="evenodd" d="M40 8a32 32 0 1032 32A32 32 0 0040 8z"/>
  <path fill="#ff8200" fill-rule="evenodd" d="M40 8A32 32 0 118 40 32 32 0 0140 8zm0 2.667A29.333 29.333 0 1069.333 40 29.333 29.333 0 0040 10.667zm16.269 14.687a1.276 1.276 0 01.84.558 25.913 25.913 0 014.157 12.389c.002.018.067 1.168.067 1.51 0 .72-.04 1.674-.044 1.79v.012l-.003.016v.093a26.231 26.231 0 01-3.919 12.333 1.282 1.282 0 01-1.691.463l-.128-.078-.053-.037a1.263 1.263 0 01-.348-1.722 23.591 23.591 0 003.579-12.676 23.32 23.32 0 00-3.811-12.648 1.287 1.287 0 01.215-1.652l.105-.085.053-.038a1.27 1.27 0 01.98-.228zm-4.711 3.143a1.326 1.326 0 01.872.563 20.014 20.014 0 013.33 10.459l.008.464a20.216 20.216 0 01-3.115 10.924 1.33 1.33 0 01-.859.588 1.373 1.373 0 01-.9-.12l-.132-.078-.055-.035a1.24 1.24 0 01-.366-1.703 17.54 17.54 0 00-.194-19.079 1.242 1.242 0 01.23-1.635l.107-.083.052-.038a1.36 1.36 0 011.022-.227zM36.189 29.79l.188.02h.015l.05.022.042.033.508.553a.134.134 0 01.046.115.177.177 0 01-.062.112l-.037.024h-.028a2.381 2.381 0 00-1.208.847l-.106.155v.015l-.018.022-.058.089-.046.094-.035.117a1.025 1.025 0 00.149.808c.1.178.208.36.336.558a6.074 6.074 0 011.202 2.39 5.96 5.96 0 01-.017 2.163l-.067.305v.03a12.457 12.457 0 01-1.751 3.833 20.08 20.08 0 01-1.724 2.204l-.38.411-1.04 1.037a13.263 13.263 0 01-2.095 1.619c-.112.072-.305.183-.508.298l-.267.155-.122.073h-.02a10.103 10.103 0 01-1.828.842c-.138.056-.328.117-.53.181l-.15.05-.27.082a13.064 13.064 0 01-1.754.41 13.62 13.62 0 01-2.97.227l-.497-.026-.287-.01a4.773 4.773 0 01-1.393-.306 1.216 1.216 0 01-.7-.633 1.199 1.199 0 01.51-1.458c4.167-2.34 6.313-7.78 6.962-10.799l.05-.24v-.017c.04-.1.081-.2.117-.293a8.697 8.697 0 01.655-1.846 4.616 4.616 0 013.605-2.834q.22-.02.44-.022l.22.002h.084c.07.005.628.055.884.101l.08.017.233.05.173.018c.109.01.206.017.298.017a1.054 1.054 0 00.722-.173l.101-.077.184-.232a4.39 4.39 0 01.879-.788 1.983 1.983 0 011.235-.345zm10.586 1.854a1.302 1.302 0 01.86.582 15.16 15.16 0 01.176 15.776 1.307 1.307 0 01-.846.61 1.34 1.34 0 01-.9-.115l-.133-.079-.049-.052a1.248 1.248 0 01-.373-1.679 12.598 12.598 0 00-.148-13.088 1.255 1.255 0 01.238-1.616l.104-.083.049-.033a1.329 1.329 0 011.022-.223zm-4.848 2.096a1.253 1.253 0 01.814.57 11.413 11.413 0 011.631 5.82 11.552 11.552 0 01-1.503 5.786 1.258 1.258 0 01-.396.423 1.278 1.278 0 01-.416.18 1.245 1.245 0 01-.857-.117l-.127-.078-.035-.022a1.267 1.267 0 01-.359-1.658 8.988 8.988 0 001.168-4.483 8.877 8.877 0 00-1.265-4.504 1.268 1.268 0 01.228-1.593l.1-.082.032-.023a1.246 1.246 0 01.985-.22z"/>
</svg>
