<svg id="Layer_1" data-name="Layer 1" xmlns="http://www.w3.org/2000/svg" viewBox="0 0 80 80"><defs><style>.cls-1{fill:#ebebed;}.cls-2{fill:#fff;}.cls-2,.cls-3{fill-rule:evenodd;}.cls-3{fill:#73b455;}</style></defs><title>earn</title><g id="earn"><circle id="Oval" class="cls-1" cx="40" cy="40" r="40"/><path id="bck" class="cls-2" d="M40,8C22.32689,8,8,22.55075,8,40.5S22.32689,73,40,73,72,58.44925,72,40.5,57.67311,8,40,8Z"/><path id="Combined-Shape" class="cls-3" d="M40,8C57.67311,8,72,22.55075,72,40.5S57.67311,73,40,73,8,58.44925,8,40.5,22.32689,8,40,8Zm0,2.70833A29.56517,29.56517,0,0,0,10.66667,40.5,29.56517,29.56517,0,0,0,40,70.29167,29.56517,29.56517,0,0,0,69.33333,40.5,29.56517,29.56517,0,0,0,40,10.70833ZM56.065,26.3807a3.30094,3.30094,0,0,1,2.39967-.5507h.02507a.31833.31833,0,0,1,.154.09782h0l.86675.96734a.2734.2734,0,0,1,.07879.20289.3113.3113,0,0,1-.17191.23911h-.05015a4.09354,4.09354,0,0,0-2.23849,1.75353h0l-.02149.02536-.02507.03985a1.37,1.37,0,0,0-.17908.31882h0l-.05032.16358a1.82911,1.82911,0,0,0,.24014,1.4559c.16834.3152.35816.61591.57664.9782a10.75883,10.75883,0,0,1,2.05225,4.18817,10.79,10.79,0,0,1-.14684,4.32584h0v.0471a22.49113,22.49113,0,0,1-2.99063,6.717,34.10857,34.10857,0,0,1-3.5816,4.58308h0l-1.7908,1.81149a22.65962,22.65962,0,0,1-3.58159,2.83317,9.06975,9.06975,0,0,1-.84526.52533c-.2328.13405-.46919.27173-.66617.39491h0l-.03224.02174a17.24855,17.24855,0,0,1-3.11957,1.47093c-.29727.1268-.7199.26085-1.1676.40577h0l-.45486.14492a21.93025,21.93025,0,0,1-2.99779.7246,22.75391,22.75391,0,0,1-5.92754.3623h0l-.36724-.01031a7.88036,7.88036,0,0,1-2.498-.544,2.08952,2.08952,0,0,1-1.19267-1.08689,2.1788,2.1788,0,0,1,.91689-2.60131c7.29929-4.18454,10.96684-14.126,11.984-19.35035h0v-.029c.068-.17753.13252-.35143.197-.51447a15.46956,15.46956,0,0,1,1.121-3.23532c2.2385-4.60119,5.838-4.94175,6.1496-4.96349a8.41472,8.41472,0,0,1,1.1282-.03261h.14327c.1361.01087,1.3216.12319,1.64753.21014h0l.39756.08333.22356.02338a5.7602,5.7602,0,0,0,.57871.03821,1.75265,1.75265,0,0,0,1.4004-.44925h0l.22187-.29194A7.606,7.606,0,0,1,56.065,26.3807Zm-26.79106-.77653a.54905.54905,0,0,1,.54595.55355V31.884h5.63421A.54906.54906,0,0,1,36,32.43753V35.0208a.54906.54906,0,0,1-.54595.55356H29.81984v5.72625a.54906.54906,0,0,1-.54595.55356H26.72611a.54906.54906,0,0,1-.54595-.55356V35.57436H20.546A.54906.54906,0,0,1,20,35.0208V32.43753a.54906.54906,0,0,1,.546-.55356h5.63421V26.15772a.54905.54905,0,0,1,.54595-.55355Z"/></g></svg>