<svg xmlns="http://www.w3.org/2000/svg" data-name="Layer 1" viewBox="0 0 80 80">
  <circle cx="40" cy="40" r="40" fill="#ebebed"/>
  <path fill="#fff" fill-rule="evenodd" d="M40 8a32 32 0 1032 32A32 32 0 0040 8z"/>
  <path fill="#e81313" fill-rule="evenodd" d="M40 8A32 32 0 118 40 32 32 0 0140 8zm0 2.667A29.333 29.333 0 1069.333 40 29.333 29.333 0 0040 10.667zm12.916 13.9a8.254 8.254 0 015.443 6.15 12.686 12.686 0 01-.045 5.734 24.968 24.968 0 01-3.048 7.414 51.21 51.21 0 01-3.442 4.986 108.66 108.66 0 01-6.999 8.508 28.247 28.247 0 01-3.095 2.95c-.38.302-.796.562-1.198.837a.854.854 0 01-1.065.002 13.568 13.568 0 01-1.3-.927c-.904-.809-1.808-1.628-2.644-2.5a98.9 98.9 0 01-7.295-8.793 49.093 49.093 0 01-3.901-5.763 24.384 24.384 0 01-2.596-6.49 12.954 12.954 0 01-.045-6.17 8.463 8.463 0 017.311-6.4 10.287 10.287 0 019.114 3.248 11.663 11.663 0 011.652 2.208c.064.115.138.223.249.397a12.438 12.438 0 012.027-2.762 10.184 10.184 0 015.87-3.063 10.023 10.023 0 015.007.435z"/>
</svg>
