<!-- Generated by IcoMoon.io -->
<svg version="1.1" xmlns="http://www.w3.org/2000/svg" width="32" height="32" viewBox="0 0 32 32">
<title>user</title>
<path fill="#96c31e" d="M15.952 6.218c-2.462 0-4.444 1.215-4.444 5.211 0 2.877 1.982 5.211 4.444 5.211s4.444-2.334 4.444-5.211c-0.032-3.996-2.046-5.211-4.444-5.211z"></path>
<path fill="#96c31e" d="M27.205 4.715c-3.037-3.037-7.033-4.699-11.253-4.699s-8.248 1.662-11.317 4.699c-3.005 3.005-4.635 7.001-4.635 11.253s1.662 8.28 4.699 11.317c3.005 3.005 7.001 4.699 11.285 4.699s8.28-1.662 11.317-4.699c3.005-3.005 4.699-7.001 4.699-11.317s-1.758-8.248-4.795-11.253zM26.501 26.581c-0.32 0.32-0.639 0.607-0.959 0.895 0-0.735 0-1.694 0-1.758-0.128-0.959-1.215-7.225-6.649-8.919-0.799 0.831-1.822 1.311-2.973 1.311s-2.206-0.512-3.005-1.343c-5.722 1.662-6.426 8.024-6.521 8.951 0 0.064 0 1.055 0 1.79-0.352-0.288-0.703-0.607-1.023-0.927-2.781-2.813-4.38-6.585-4.38-10.613s1.566-7.768 4.38-10.581 6.585-4.38 10.581-4.38 7.736 1.566 10.549 4.38 4.38 6.585 4.38 10.581-1.566 7.8-4.38 10.613z"></path>
</svg>
